# xmcd
#
# Track frame offsets: 
#        150
#        18374
#        36298
#        50911
#        66753
#        89354
#        106982
#        124655
#        142509
#        164248
#        185995
#        206119
#
# Disc length: 3006 seconds
#
# Revision: 5
# Processed by: cddbd v1.5.2PL0 Copyright (c) Steve Scherf et al.
# Submitted via: ExactAudioCopy v1.0b1
#
DISCID=b20bbc0c
DTITLE=Ayo - Joyful
DYEAR=2006
DGENRE=Soul
TTITLE0=Down on my knees
TTITLE1=Without you
TTITLE2=Letter by letter
TTITLE3=How many times
TTITLE4=And it's supposed to be love
TTITLE5=Watching you
TTITLE6=Only you
TTITLE7=Help is coming
TTITLE8=These days
TTITLE9=Life is real
TTITLE10=What is love
TTITLE11=Neva been
EXTD=YEAR: 2006
EXTT0=
EXTT1=
EXTT2=
EXTT3=
EXTT4=
EXTT5=
EXTT6=
EXTT7=
EXTT8=
EXTT9=
EXTT10=
EXTT11=
PLAYORDER=
